<svg width="385" height="426" viewBox="0 0 385 426" fill="none" xmlns="http://www.w3.org/2000/svg">
<path d="M279.264 287.466L151.771 201.407L86.9747 297.578L214.468 383.636L279.264 287.466Z" fill="#F2F2F2"/>
<path d="M82.3767 370.194L81.0564 369.511C98.2035 336.33 89.0343 293.24 78.3235 262.935C71.0506 242.565 61.7741 222.969 50.6306 204.435L51.8864 203.641C63.0877 222.269 72.4126 241.965 79.7237 262.438C90.5331 293.021 99.7668 336.541 82.3767 370.194Z" fill="#2F2E41"/>
<path d="M95.0907 203.905L85.4523 256.702L86.9134 256.969L96.5518 204.172L95.0907 203.905Z" fill="#2F2E41"/>
<path d="M31.0021 248.888L29.914 249.902L79.6866 303.439L80.7747 302.425L31.0021 248.888Z" fill="#2F2E41"/>
<path d="M120.481 307.697L95.2349 342.653L96.4392 343.524L121.685 308.568L120.481 307.697Z" fill="#2F2E41"/>
<path d="M99.5456 189.91C103.648 189.91 106.974 186.581 106.974 182.475C106.974 178.368 103.648 175.039 99.5456 175.039C95.4428 175.039 92.1168 178.368 92.1168 182.475C92.1168 186.581 95.4428 189.91 99.5456 189.91Z" fill="#57B894"/>
<path d="M18.5719 247.165C22.6747 247.165 26.0007 243.836 26.0007 239.729C26.0007 235.622 22.6747 232.293 18.5719 232.293C14.4691 232.293 11.1432 235.622 11.1432 239.729C11.1432 243.836 14.4691 247.165 18.5719 247.165Z" fill="#57B894"/>
<path d="M51.2585 254.6C55.3613 254.6 58.6873 251.271 58.6873 247.165C58.6873 243.058 55.3613 239.729 51.2585 239.729C47.1557 239.729 43.8298 243.058 43.8298 247.165C43.8298 251.271 47.1557 254.6 51.2585 254.6Z" fill="#57B894"/>
<path d="M36.401 283.599C40.5038 283.599 43.8298 280.27 43.8298 276.163C43.8298 272.057 40.5038 268.728 36.401 268.728C32.2982 268.728 28.9722 272.057 28.9722 276.163C28.9722 280.27 32.2982 283.599 36.401 283.599Z" fill="#57B894"/>
<path d="M129.261 302.188C133.363 302.188 136.689 298.859 136.689 294.753C136.689 290.646 133.363 287.317 129.261 287.317C125.158 287.317 121.832 290.646 121.832 294.753C121.832 298.859 125.158 302.188 129.261 302.188Z" fill="#57B894"/>
<path d="M104.746 310.367C108.849 310.367 112.174 307.038 112.174 302.932C112.174 298.825 108.849 295.496 104.746 295.496C100.643 295.496 97.3169 298.825 97.3169 302.932C97.3169 307.038 100.643 310.367 104.746 310.367Z" fill="#57B894"/>
<path d="M121.832 334.161C125.935 334.161 129.261 330.832 129.261 326.726C129.261 322.619 125.935 319.29 121.832 319.29C117.729 319.29 114.403 322.619 114.403 326.726C114.403 330.832 117.729 334.161 121.832 334.161Z" fill="#57B894"/>
<path d="M43.8298 198.833C47.9326 198.833 51.2585 195.504 51.2585 191.397C51.2585 187.291 47.9326 183.962 43.8298 183.962C39.727 183.962 36.401 187.291 36.401 191.397C36.401 195.504 39.727 198.833 43.8298 198.833Z" fill="#57B894"/>
<path d="M380.353 378.032C396.112 394.941 378.999 454.06 190.177 410.005C87.8872 386.139 0 386.655 0 378.032C0 369.408 85.145 378.775 190.177 378.775C295.208 378.775 374.476 371.725 380.353 378.032Z" fill="#3F3D56"/>
<path opacity="0.1" d="M380.353 378.032C396.112 394.941 378.999 454.06 190.177 410.005C87.8872 386.139 0 386.655 0 378.032C0 369.408 85.145 378.775 190.177 378.775C295.208 378.775 374.476 371.725 380.353 378.032Z" fill="black"/>
<path d="M380.353 378.032C396.112 394.941 378.999 437.701 190.177 393.646C87.8872 369.781 0 386.655 0 378.032C0 369.408 85.145 362.417 190.177 362.417C295.208 362.417 374.476 371.726 380.353 378.032Z" fill="#3F3D56"/>
<path d="M182.578 0.301788H191.123C193.817 0.301784 196.484 0.832843 198.973 1.86464C201.461 2.89643 203.723 4.40875 205.628 6.31525C207.532 8.22176 209.043 10.4851 210.074 12.9761C211.105 15.4671 211.635 18.1369 211.635 20.8331V49.9175H162.065V20.8331C162.065 15.3878 164.227 10.1656 168.073 6.31527C171.92 2.4649 177.138 0.301788 182.578 0.301788H182.578Z" fill="#2F2E41"/>
<path d="M177.785 40.3263C177.785 40.3263 179.864 56.9684 175.188 58.0086C170.511 59.0487 168.433 65.2895 168.433 65.2895L184.02 75.1707L200.128 72.0503L198.569 60.0888C198.569 60.0888 194.412 48.1273 196.491 40.3263C198.569 32.5253 177.785 40.3263 177.785 40.3263Z" fill="#A0616A"/>
<path opacity="0.1" d="M177.785 40.3263C177.785 40.3263 179.864 56.9684 175.188 58.0086C170.511 59.0487 168.433 65.2895 168.433 65.2895L184.02 75.1707L200.128 72.0503L198.569 60.0888C198.569 60.0888 194.412 48.1273 196.491 40.3263C198.569 32.5253 177.785 40.3263 177.785 40.3263Z" fill="black"/>
<path d="M157.002 233.271L161.159 260.314C161.159 260.314 160.12 287.878 167.394 312.321L174.668 336.764L181.942 328.443L184.02 295.159C184.02 295.159 184.54 283.197 182.462 273.836L184.02 230.15L157.002 233.271Z" fill="#A0616A"/>
<path d="M195.451 228.59L199.089 275.916C199.089 275.916 197.53 326.363 197.01 327.923C196.491 329.483 207.402 331.563 207.402 331.563C207.402 331.563 224.029 292.038 218.833 260.834C218.833 260.834 215.715 234.311 219.872 227.55C224.029 220.789 195.451 228.59 195.451 228.59Z" fill="#A0616A"/>
<path d="M186.618 48.6474C196.662 48.6474 204.804 40.4979 204.804 30.4451C204.804 20.3922 196.662 12.2428 186.618 12.2428C176.575 12.2428 168.433 20.3922 168.433 30.4451C168.433 40.4979 176.575 48.6474 186.618 48.6474Z" fill="#A0616A"/>
<path d="M172.07 62.1691C172.07 62.1691 174.148 69.9701 184.02 69.45C193.893 68.93 198.569 60.0888 198.569 60.0888C198.569 60.0888 210.519 66.3296 216.235 65.8096L214.676 91.2928C214.676 91.2928 204.804 118.336 206.882 124.577C208.961 130.818 251.047 196.346 245.851 221.829C245.851 221.829 251.047 229.11 231.303 230.67C211.559 232.231 212.078 228.59 195.971 235.871C179.864 243.152 157.522 238.991 152.326 237.951C147.13 236.911 128.944 233.791 128.944 233.791C128.944 233.791 133.101 156.821 157.002 130.818L156.482 84.0119L154.404 66.3296C154.404 66.3296 171.169 58.0086 171.619 60.0888L172.07 62.1691Z" fill="#2F2E41"/>
<path d="M248.969 97.0135C248.969 97.0135 275.468 113.656 265.076 120.416C254.684 127.177 217.583 144.215 217.583 144.215C217.583 144.215 189.216 130.818 196.491 125.617C203.765 120.416 216.235 134.978 216.235 134.978L248.449 115.736L240.136 106.375L248.969 97.0135Z" fill="#A0616A"/>
<path d="M140.895 111.055V186.985C140.895 186.985 138.297 216.109 148.169 214.028C158.041 211.948 150.247 185.945 150.247 185.945L153.365 141.219V116.256L140.895 111.055Z" fill="#A0616A"/>
<path d="M183.501 315.961C183.501 315.961 178.825 325.843 168.952 320.122C168.952 320.122 171.55 328.963 171.55 331.043C171.55 333.123 174.148 344.045 175.188 345.085C176.227 346.125 175.188 369.008 180.383 370.048C185.579 371.088 190.256 358.087 190.256 353.406C190.256 348.725 188.697 333.644 188.697 333.644C188.697 333.644 189.736 323.762 184.021 320.642L183.501 315.961Z" fill="#2F2E41"/>
<path d="M210.519 327.403L195.971 325.322L192.853 337.804C192.853 337.804 184.54 360.167 184.02 363.807C183.501 367.448 174.148 382.53 182.462 382.53C190.775 382.53 199.088 383.05 200.647 378.369C202.206 373.689 205.324 357.567 207.921 351.846C210.519 346.125 206.882 340.404 206.882 340.404L210.519 327.403Z" fill="#2F2E41"/>
<path d="M211.559 67.8898L216.235 65.8096C216.235 65.8096 220.911 65.8096 228.185 74.1306C235.46 82.4517 254.684 99.0938 254.684 99.0938C254.684 99.0938 241.695 112.095 238.577 111.055C235.46 110.015 211.559 87.1323 211.559 87.1323V67.8898Z" fill="#2F2E41"/>
<path d="M157.002 66.3297H154.404C154.404 66.3297 143.493 67.3698 141.934 80.8915C140.375 94.4132 137.777 110.535 136.738 112.095C135.699 113.656 150.247 120.416 152.845 120.416C155.443 120.416 159.6 79.8514 159.6 79.8514L157.002 66.3297Z" fill="#2F2E41"/>
<path d="M200.133 22.166H175.106L169.44 9.13135H204.383L200.133 22.166Z" fill="#2F2E41"/>
<path d="M169.225 31.7043C169.893 31.5104 170.016 29.9067 169.5 28.1223C168.983 26.338 168.022 25.0487 167.354 25.2425C166.685 25.4364 166.562 27.0401 167.079 28.8245C167.595 30.6089 168.556 31.8982 169.225 31.7043Z" fill="#A0616A"/>
<path d="M205.682 29.8647C206.199 28.0803 206.076 26.4766 205.407 26.2827C204.739 26.0888 203.778 27.3782 203.261 29.1625C202.745 30.9469 202.868 32.5506 203.537 32.7445C204.205 32.9384 205.166 31.649 205.682 29.8647Z" fill="#A0616A"/>
</svg>
