<svg width="719" height="544" viewBox="0 0 719 544" fill="none" xmlns="http://www.w3.org/2000/svg">
<path d="M279.264 405.466L151.771 319.407L86.9747 415.578L214.468 501.636L279.264 405.466Z" fill="#F2F2F2"/>
<path d="M82.3767 488.194L81.0564 487.511C98.2035 454.33 89.0343 411.24 78.3235 380.935C71.0506 360.565 61.7741 340.969 50.6306 322.435L51.8864 321.641C63.0877 340.269 72.4126 359.965 79.7237 380.438C90.5331 411.021 99.7668 454.541 82.3767 488.194Z" fill="#2F2E41"/>
<path d="M95.0907 321.905L85.4523 374.702L86.9134 374.969L96.5518 322.172L95.0907 321.905Z" fill="#2F2E41"/>
<path d="M31.0021 366.888L29.914 367.902L79.6866 421.439L80.7747 420.425L31.0021 366.888Z" fill="#2F2E41"/>
<path d="M120.481 425.697L95.2349 460.653L96.4392 461.524L121.685 426.568L120.481 425.697Z" fill="#2F2E41"/>
<path d="M99.5456 307.91C103.648 307.91 106.974 304.581 106.974 300.475C106.974 296.368 103.648 293.039 99.5456 293.039C95.4428 293.039 92.1168 296.368 92.1168 300.475C92.1168 304.581 95.4428 307.91 99.5456 307.91Z" fill="#57B894"/>
<path d="M18.5719 365.165C22.6747 365.165 26.0007 361.836 26.0007 357.729C26.0007 353.622 22.6747 350.293 18.5719 350.293C14.4691 350.293 11.1432 353.622 11.1432 357.729C11.1432 361.836 14.4691 365.165 18.5719 365.165Z" fill="#57B894"/>
<path d="M51.2585 372.6C55.3613 372.6 58.6873 369.271 58.6873 365.165C58.6873 361.058 55.3613 357.729 51.2585 357.729C47.1557 357.729 43.8298 361.058 43.8298 365.165C43.8298 369.271 47.1557 372.6 51.2585 372.6Z" fill="#57B894"/>
<path d="M36.401 401.599C40.5038 401.599 43.8298 398.27 43.8298 394.163C43.8298 390.057 40.5038 386.728 36.401 386.728C32.2982 386.728 28.9722 390.057 28.9722 394.163C28.9722 398.27 32.2982 401.599 36.401 401.599Z" fill="#57B894"/>
<path d="M129.261 420.188C133.363 420.188 136.689 416.859 136.689 412.753C136.689 408.646 133.363 405.317 129.261 405.317C125.158 405.317 121.832 408.646 121.832 412.753C121.832 416.859 125.158 420.188 129.261 420.188Z" fill="#57B894"/>
<path d="M104.746 428.367C108.849 428.367 112.174 425.038 112.174 420.932C112.174 416.825 108.849 413.496 104.746 413.496C100.643 413.496 97.3169 416.825 97.3169 420.932C97.3169 425.038 100.643 428.367 104.746 428.367Z" fill="#57B894"/>
<path d="M121.832 452.161C125.935 452.161 129.261 448.832 129.261 444.726C129.261 440.619 125.935 437.29 121.832 437.29C117.729 437.29 114.403 440.619 114.403 444.726C114.403 448.832 117.729 452.161 121.832 452.161Z" fill="#57B894"/>
<path d="M43.8298 316.833C47.9326 316.833 51.2585 313.504 51.2585 309.397C51.2585 305.291 47.9326 301.962 43.8298 301.962C39.727 301.962 36.401 305.291 36.401 309.397C36.401 313.504 39.727 316.833 43.8298 316.833Z" fill="#57B894"/>
<path d="M380.353 496.032C396.112 512.941 378.999 572.06 190.177 528.005C87.8872 504.139 0 504.655 0 496.032C0 487.408 85.145 496.775 190.177 496.775C295.208 496.775 374.476 489.725 380.353 496.032Z" fill="#3F3D56"/>
<path opacity="0.1" d="M380.353 496.032C396.112 512.941 378.999 572.06 190.177 528.005C87.8872 504.139 0 504.655 0 496.032C0 487.408 85.145 496.775 190.177 496.775C295.208 496.775 374.476 489.725 380.353 496.032Z" fill="black"/>
<path d="M380.353 496.032C396.112 512.941 378.999 555.701 190.177 511.646C87.8872 487.781 0 504.655 0 496.032C0 487.408 85.145 480.417 190.177 480.417C295.208 480.417 374.476 489.726 380.353 496.032Z" fill="#3F3D56"/>
<path d="M182.578 118.302H191.123C193.817 118.302 196.484 118.833 198.973 119.865C201.461 120.896 203.723 122.409 205.628 124.315C207.532 126.222 209.043 128.485 210.074 130.976C211.105 133.467 211.635 136.137 211.635 138.833V167.918H162.065V138.833C162.065 133.388 164.227 128.166 168.073 124.315C171.92 120.465 177.138 118.302 182.578 118.302H182.578Z" fill="#2F2E41"/>
<path d="M177.785 158.326C177.785 158.326 179.864 174.968 175.188 176.009C170.511 177.049 168.433 183.289 168.433 183.289L184.02 193.171L200.128 190.05L198.569 178.089C198.569 178.089 194.412 166.127 196.491 158.326C198.569 150.525 177.785 158.326 177.785 158.326Z" fill="#A0616A"/>
<path opacity="0.1" d="M177.785 158.326C177.785 158.326 179.864 174.968 175.188 176.009C170.511 177.049 168.433 183.289 168.433 183.289L184.02 193.171L200.128 190.05L198.569 178.089C198.569 178.089 194.412 166.127 196.491 158.326C198.569 150.525 177.785 158.326 177.785 158.326Z" fill="black"/>
<path d="M157.002 351.271L161.159 378.314C161.159 378.314 160.12 405.878 167.394 430.321L174.668 454.764L181.942 446.443L184.02 413.159C184.02 413.159 184.54 401.197 182.462 391.836L184.02 348.15L157.002 351.271Z" fill="#A0616A"/>
<path d="M195.451 346.59L199.089 393.916C199.089 393.916 197.53 444.363 197.01 445.923C196.491 447.483 207.402 449.563 207.402 449.563C207.402 449.563 224.029 410.038 218.833 378.834C218.833 378.834 215.715 352.311 219.872 345.55C224.029 338.789 195.451 346.59 195.451 346.59Z" fill="#A0616A"/>
<path d="M186.618 166.647C196.662 166.647 204.804 158.498 204.804 148.445C204.804 138.392 196.662 130.243 186.618 130.243C176.575 130.243 168.433 138.392 168.433 148.445C168.433 158.498 176.575 166.647 186.618 166.647Z" fill="#A0616A"/>
<path d="M172.07 180.169C172.07 180.169 174.148 187.97 184.02 187.45C193.893 186.93 198.569 178.089 198.569 178.089C198.569 178.089 210.519 184.33 216.235 183.81L214.676 209.293C214.676 209.293 204.804 236.336 206.882 242.577C208.961 248.818 251.047 314.346 245.851 339.829C245.851 339.829 251.047 347.11 231.303 348.67C211.559 350.231 212.078 346.59 195.971 353.871C179.864 361.152 157.522 356.991 152.326 355.951C147.13 354.911 128.944 351.791 128.944 351.791C128.944 351.791 133.101 274.821 157.002 248.818L156.482 202.012L154.404 184.33C154.404 184.33 171.169 176.009 171.619 178.089L172.07 180.169Z" fill="#2F2E41"/>
<path d="M248.969 215.014C248.969 215.014 275.468 231.656 265.076 238.416C254.684 245.177 217.583 262.215 217.583 262.215C217.583 262.215 189.216 248.818 196.491 243.617C203.765 238.416 216.235 252.978 216.235 252.978L248.449 233.736L240.136 224.375L248.969 215.014Z" fill="#A0616A"/>
<path d="M140.895 229.055V304.985C140.895 304.985 138.297 334.109 148.169 332.028C158.041 329.948 150.247 303.945 150.247 303.945L153.365 259.219V234.256L140.895 229.055Z" fill="#A0616A"/>
<path d="M183.501 433.961C183.501 433.961 178.825 443.843 168.952 438.122C168.952 438.122 171.55 446.963 171.55 449.043C171.55 451.123 174.148 462.045 175.188 463.085C176.227 464.125 175.188 487.008 180.383 488.048C185.579 489.088 190.256 476.087 190.256 471.406C190.256 466.725 188.697 451.644 188.697 451.644C188.697 451.644 189.736 441.762 184.021 438.642L183.501 433.961Z" fill="#2F2E41"/>
<path d="M210.519 445.403L195.971 443.322L192.853 455.804C192.853 455.804 184.54 478.167 184.02 481.807C183.501 485.448 174.148 500.53 182.462 500.53C190.775 500.53 199.088 501.05 200.647 496.369C202.206 491.689 205.324 475.567 207.921 469.846C210.519 464.125 206.882 458.404 206.882 458.404L210.519 445.403Z" fill="#2F2E41"/>
<path d="M211.559 185.89L216.235 183.81C216.235 183.81 220.911 183.81 228.185 192.131C235.46 200.452 254.684 217.094 254.684 217.094C254.684 217.094 241.695 230.095 238.577 229.055C235.46 228.015 211.559 205.132 211.559 205.132V185.89Z" fill="#2F2E41"/>
<path d="M157.002 184.33H154.404C154.404 184.33 143.493 185.37 141.934 198.891C140.375 212.413 137.777 228.535 136.738 230.095C135.699 231.656 150.247 238.416 152.845 238.416C155.443 238.416 159.6 197.851 159.6 197.851L157.002 184.33Z" fill="#2F2E41"/>
<path d="M200.133 140.166H175.106L169.44 127.131H204.383L200.133 140.166Z" fill="#2F2E41"/>
<path d="M169.225 149.704C169.893 149.51 170.016 147.907 169.5 146.122C168.983 144.338 168.022 143.049 167.354 143.243C166.685 143.436 166.562 145.04 167.079 146.824C167.595 148.609 168.556 149.898 169.225 149.704Z" fill="#A0616A"/>
<path d="M205.682 147.865C206.199 146.08 206.076 144.477 205.407 144.283C204.739 144.089 203.778 145.378 203.261 147.163C202.745 148.947 202.868 150.551 203.537 150.744C204.205 150.938 205.166 149.649 205.682 147.865Z" fill="#A0616A"/>
</svg>
