<svg width="192" height="164" viewBox="0 0 192 164" fill="none" xmlns="http://www.w3.org/2000/svg">
<path d="M2.64282 80.8697L146.234 0L192.001 82.7403L45.7665 163.627L2.64282 80.8697Z" fill="#F2F2F2"/>
<path d="M57.5294 120.889C56.5317 121.465 55.5411 121.621 54.5576 121.357C53.5949 121.082 52.7535 120.32 52.0335 119.073C51.7335 118.554 51.4266 117.83 51.1129 116.903L47.9255 107.062L46.8967 107.656L46.4261 106.265L47.4549 105.671L45.9062 100.829L50.1604 97.5411L51.9444 103.079L53.815 101.999L54.2856 103.39L52.415 104.47L55.8197 114.975C55.9165 115.335 56.067 115.692 56.271 116.045C56.511 116.461 56.7785 116.708 57.0735 116.787C57.3774 116.833 57.7579 116.724 58.2152 116.46C58.818 116.112 59.2351 115.539 59.4668 114.74C59.6864 113.921 59.6765 113.039 59.4371 112.097L60.7466 111.341C61.2735 114.03 61.1683 116.127 60.4308 117.634C59.6812 119.12 58.7141 120.205 57.5294 120.889ZM67.2705 115.181C65.7325 116.069 64.2886 116.377 62.9388 116.103C61.5891 115.829 60.4222 114.84 59.4382 113.135C58.6102 111.701 57.9848 109.97 57.562 107.942C57.1272 105.893 57.1837 103.879 57.7316 101.899C58.2674 99.8996 59.5226 98.3297 61.4972 97.1897C63.9498 95.7737 66.0796 96.4146 67.8866 99.1126C68.2839 98.7446 68.5452 98.2612 68.6705 97.6623C68.7839 97.0426 68.8464 96.383 68.8582 95.6834L69.8559 95.1074C69.9427 96.5537 69.9538 97.7251 69.8894 98.6214C69.8129 99.4969 69.5353 100.336 69.0566 101.139C70.0599 103.165 70.6446 105.114 70.8107 106.985C70.9976 108.845 70.7847 110.492 70.1719 111.927C69.5471 113.341 68.58 114.425 67.2705 115.181ZM66.8976 111.656C67.6666 111.212 68.0237 110.174 67.9688 108.543C67.9139 106.912 67.4832 105.11 66.6766 103.137C66.0698 103.238 65.5504 102.914 65.1184 102.166C64.6504 101.355 64.6293 100.647 65.0553 100.041C64.6297 99.3994 64.2514 99.0082 63.9204 98.8668C63.5981 98.6926 63.2395 98.7195 62.8446 98.9475C62.1587 99.3435 61.792 100.22 61.7444 101.578C61.6849 102.915 61.8657 104.404 62.2868 106.045C62.7167 107.654 63.2376 108.988 63.8496 110.048C64.4256 111.046 64.9299 111.655 65.3625 111.877C65.7832 112.077 66.2949 112.004 66.8976 111.656ZM113.261 88.7118C112.077 89.3958 110.855 89.5605 109.598 89.2059C108.34 88.8513 107.213 87.8114 106.217 86.0863C105.329 84.5482 104.7 82.7634 104.331 80.7319C103.97 78.6675 104.057 76.7054 104.59 74.8455C105.133 72.9527 106.246 71.5204 107.929 70.5484C108.781 70.0564 109.499 69.8359 110.083 69.8869C110.667 69.9378 111.097 70.2024 111.373 70.6804L111.499 70.8986L110.888 69.0483L115.377 66.4563L119.252 78.3524C119.349 78.7122 119.5 79.0687 119.704 79.4221C120.22 80.3158 120.904 80.5167 121.756 80.0247C122.338 79.6887 122.681 79.1305 122.784 78.3501C122.909 77.5577 122.844 76.653 122.589 75.6361L123.899 74.8801C124.426 77.5688 124.351 79.6485 123.676 81.1191C123.01 82.5569 122.105 83.6058 120.962 84.2658C120.089 84.7698 119.244 84.9388 118.428 84.7727C117.62 84.5739 116.895 84.0368 116.251 83.1615C116.14 84.3617 115.866 85.448 115.43 86.4204C115.003 87.36 114.28 88.1238 113.261 88.7118ZM113.542 84.5176C114.061 84.2176 114.433 83.6846 114.655 82.9186C114.887 82.1197 114.85 81.2402 114.545 80.2801L111.974 72.3701C111.818 72.0999 111.564 71.9001 111.212 71.7707C110.848 71.6205 110.448 71.6714 110.012 71.9234C109.18 72.4034 108.714 73.3238 108.613 74.6847C108.5 76.0248 108.652 77.4887 109.07 79.0765C109.476 80.6435 109.979 81.9466 110.579 82.9858C111.179 84.0251 111.708 84.6062 112.167 84.7292C112.647 84.8401 113.105 84.7696 113.542 84.5176ZM118.526 63.1001L123.016 60.5081L123.867 63.1344C124.39 61.6406 125.348 60.4918 126.74 59.6878C127.904 59.0158 129.051 58.8663 130.181 59.2393C131.311 59.6124 132.38 60.6718 133.388 62.4177C134.336 64.0597 135.057 65.8605 135.551 67.82C136.033 69.7588 136.044 71.6505 135.585 73.4953C135.114 75.3192 133.943 76.7712 132.072 77.8512C130.742 78.6192 129.643 78.7551 128.774 78.2588L131.545 86.802L127.485 90.6423L118.526 63.1001ZM129.54 75.6968C130.538 75.1208 131.089 74.1791 131.193 72.8718C131.318 71.5525 131.154 70.1645 130.701 68.7079C130.257 67.2185 129.711 65.9126 129.063 64.7902C128.067 63.0651 127.049 62.5025 126.01 63.1025C125.636 63.3185 125.329 63.6756 125.09 64.1738C124.872 64.66 124.756 65.2261 124.741 65.8722L127.941 75.6637C128.384 76.0458 128.916 76.0568 129.54 75.6968ZM133.11 54.6802L137.599 52.0882L138.45 54.7145C138.974 53.2207 139.932 52.0719 141.324 51.2679C142.488 50.5959 143.635 50.4464 144.765 50.8194C145.895 51.1924 146.964 52.2519 147.972 53.9978C148.92 55.6398 149.641 57.4406 150.135 59.4001C150.617 61.3389 150.628 63.2306 150.169 65.0753C149.698 66.8993 148.527 68.3513 146.656 69.4313C145.326 70.1993 144.227 70.3351 143.358 69.8389L146.129 78.3821L142.069 82.2224L133.11 54.6802ZM144.124 67.2769C145.121 66.7009 145.672 65.7592 145.777 64.4519C145.902 63.1326 145.738 61.7446 145.285 60.288C144.841 58.7985 144.294 57.4926 143.646 56.3703C142.65 54.6452 141.633 54.0826 140.594 54.6826C140.219 54.8986 139.913 55.2557 139.674 55.7539C139.456 56.2401 139.339 56.8062 139.324 57.4523L142.525 67.2438C142.967 67.6258 143.5 67.6369 144.124 67.2769Z" fill="black"/>
<path d="M81.6886 106.94C80.5039 107.624 79.2826 107.789 78.0248 107.434C76.767 107.08 75.6401 106.04 74.6441 104.315C73.7561 102.777 73.1274 100.992 72.7582 98.9604C72.3977 96.8961 72.4843 94.9339 73.0178 93.074C73.5601 91.1813 74.673 89.7489 76.3565 88.7769C77.2087 88.2849 77.9266 88.0644 78.5103 88.1154C79.094 88.1664 79.5239 88.4309 79.7999 88.9089L79.8719 89.0336L77.2595 80.9809L81.5137 77.6934L87.6484 96.5989C87.7452 96.9587 87.8957 97.3153 88.0997 97.6686C88.3397 98.0843 88.6072 98.3317 88.9023 98.4107C89.2061 98.457 89.5867 98.3481 90.0439 98.0841C90.6259 97.7481 90.9807 97.2107 91.1084 96.4719C91.2569 95.7211 91.2158 94.858 90.9852 93.8826L92.2947 93.1266C93.1748 97.579 92.16 100.645 89.2501 102.325C88.3979 102.817 87.5697 102.991 86.7653 102.845C85.9816 102.688 85.2755 102.209 84.6468 101.408C84.5864 102.551 84.3277 103.615 83.8706 104.6C83.4344 105.572 82.707 106.352 81.6886 106.94ZM81.9691 102.746C82.4679 102.458 82.8348 101.942 83.0696 101.196C83.3252 100.439 83.3125 99.6011 83.0316 98.6825L82.9416 98.5266L80.3473 90.5051C79.7402 89.8856 79.1041 89.7679 78.439 90.1519C77.6076 90.6319 77.1414 91.5523 77.0403 92.9132C76.9272 94.2533 77.0796 95.7172 77.4974 97.305C77.9033 98.872 78.4062 100.175 79.0062 101.214C79.6062 102.254 80.1357 102.835 80.5947 102.958C81.0745 103.069 81.5326 102.998 81.9691 102.746ZM98.8433 96.9529C97.3052 97.8409 95.8613 98.148 94.5116 97.8742C93.1618 97.6004 91.9949 96.6113 91.0109 94.907C90.1829 93.4728 89.5575 91.7416 89.1347 89.7133C88.6999 87.6641 88.7564 85.65 89.3043 83.671C89.8402 81.6711 91.0954 80.1012 93.0699 78.9612C95.5225 77.5452 97.6523 78.1861 99.4594 80.884C99.8566 80.5161 100.118 80.0327 100.243 79.4338C100.357 78.8141 100.419 78.1545 100.431 77.4548L101.429 76.8788C101.515 78.3252 101.527 79.4966 101.462 80.3929C101.386 81.2684 101.108 82.1076 100.629 82.9105C101.633 84.9363 102.217 86.885 102.383 88.7567C102.57 90.6164 102.357 92.2636 101.745 93.6982C101.12 95.112 100.153 96.1969 98.8433 96.9529ZM98.4703 93.427C99.2394 92.983 99.5964 91.9455 99.5415 90.3144C99.4866 88.6833 99.0559 86.8812 98.2493 84.9082C97.6425 85.0091 97.1231 84.6855 96.6911 83.9372C96.2231 83.1266 96.2021 82.4182 96.628 81.812C96.2025 81.1709 95.8241 80.7797 95.4931 80.6383C95.1708 80.4641 94.8122 80.491 94.4173 80.719C93.7314 81.115 93.3647 81.9918 93.3172 83.3494C93.2576 84.6863 93.4384 86.1754 93.8595 87.8168C94.2894 89.4254 94.8103 90.7597 95.4223 91.8197C95.9983 92.8173 96.5026 93.4268 96.9353 93.6482C97.3559 93.8487 97.8676 93.775 98.4703 93.427Z" fill="#57B894"/>
</svg>
