<svg width="25" height="25" viewBox="0 0 30 30" fill="none" xmlns="http://www.w3.org/2000/svg">
<path d="M15 0C12.0333 0 9.1332 0.879733 6.66646 2.52795C4.19972 4.17617 2.27713 6.51886 1.14181 9.25975C0.00649751 12.0006 -0.29055 15.0166 0.288228 17.9264C0.867007 20.8361 2.29558 23.5088 4.39337 25.6066C6.49116 27.7044 9.16393 29.133 12.0736 29.7118C14.9834 30.2906 17.9994 29.9935 20.7402 28.8582C23.4811 27.7229 25.8238 25.8003 27.472 23.3335C29.1203 20.8668 30 17.9667 30 15C29.9884 11.0253 28.4043 7.21677 25.5938 4.40625C22.7832 1.59572 18.9747 0.0116337 15 0ZM11.9207 22.9976L4.23319 15.3101L6.38942 13.1538L11.9279 18.6923L23.6178 7.00237L25.774 9.15862L11.9207 22.9976Z" fill="#57B894"/>
</svg>
